<svg width="14" height="16" viewBox="0 0 14 16" fill="none" xmlns="http://www.w3.org/2000/svg">
<path d="M13 6.6909C13 11.2727 7 15.2 7 15.2C7 15.2 1 11.2727 1 6.6909C1 5.12853 1.63214 3.63015 2.75736 2.52539C3.88258 1.42064 5.4087 0.799988 7 0.799988C8.5913 0.799988 10.1174 1.42064 11.2426 2.52539C12.3679 3.63015 13 5.12853 13 6.6909Z" stroke="#708598" stroke-linecap="round" stroke-linejoin="round"/>
<svg width="6" height="6" x="4" y="4" viewBox="0 0 6 6" fill="none" xmlns="http://www.w3.org/2000/svg">
<path d="M2.99988 4.65481C4.10445 4.65481 4.99988 3.77566 4.99988 2.69118C4.99988 1.60669 4.10445 0.727539 2.99988 0.727539C1.89531 0.727539 0.999878 1.60669 0.999878 2.69118C0.999878 3.77566 1.89531 4.65481 2.99988 4.65481Z" stroke="#708598" stroke-linecap="round" stroke-linejoin="round"/>
</svg>
</svg>
